# xmcd CD Database Entry
#
# Track frame offsets:
# 150
# 14777
# 26637
# 41208
# 58418
# 71095
# 86366
# 98494
# 112019
# 125144
# 138975
# 153447
#
# Disc length: 3113 seconds
#
# Revision: 1
# Processed by: cddbd v1.4PL0 Copyright (c) Steve Scherf et al.
# Submitted via: tcd 2.0b
#
DISCID=ae0c270c
DTITLE=Ill-Eagles - Pink
DYEAR=1900
DGENRE=
TTITLE0=Grey Poupon
TTITLE1=Still Gotta Rock
TTITLE2=He's Gore
TTITLE3=Need-a-leaderville
TTITLE4=Thin Hair
TTITLE5=When it all Goes South
TTITLE6=Gasman
TTITLE7=No Uncertain Terms
TTITLE8=Go Away
TTITLE9=Cover of the Daily Press
TTITLE10=Talkin' to Ralph
TTITLE11=Need-a-leaderville (Election 2000 Party Mix)
EXTD=
EXTT0=
EXTT1=
EXTT2=
EXTT3=
EXTT4=
EXTT5=
EXTT6=
EXTT7=
EXTT8=
EXTT9=
EXTT10=
EXTT11=
PLAYORDER=
